<svg width="96" height="96" viewBox="0 0 96 96" fill="none" xmlns="http://www.w3.org/2000/svg">
  <defs>
    <radialGradient id="bg-gradient" cx="0" cy="0" r="1" gradientUnits="userSpaceOnUse" gradientTransform="translate(30 26) rotate(45) scale(78)">
      <stop offset="0" stop-color="#38BDF8" />
      <stop offset="0.45" stop-color="#6366F1" />
      <stop offset="1" stop-color="#0F172A" />
    </radialGradient>
    <linearGradient id="petal-a" x1="20" y1="16" x2="74" y2="70" gradientUnits="userSpaceOnUse">
      <stop stop-color="#BAE6FD" />
      <stop offset="1" stop-color="#38BDF8" />
    </linearGradient>
    <linearGradient id="petal-b" x1="66" y1="20" x2="26" y2="80" gradientUnits="userSpaceOnUse">
      <stop stop-color="#DDD6FE" />
      <stop offset="1" stop-color="#6366F1" />
    </linearGradient>
    <linearGradient id="petal-c" x1="14" y1="54" x2="80" y2="38" gradientUnits="userSpaceOnUse">
      <stop stop-color="#5EEAD4" />
      <stop offset="1" stop-color="#22D3EE" />
    </linearGradient>
    <filter id="soft-glow" x="-20%" y="-20%" width="140%" height="140%" color-interpolation-filters="sRGB">
      <feDropShadow dx="0" dy="12" stdDeviation="12" flood-color="#38BDF8" flood-opacity="0.25" />
    </filter>
  </defs>
  <g filter="url(#soft-glow)">
    <circle cx="48" cy="48" r="40" fill="url(#bg-gradient)" />
    <path d="M48 12c-19.88 0-36 16.12-36 36 0 9.73 3.86 18.57 10.14 25.18a6 6 0 0 0 8.53.17l14.18-13.41c3.37-3.19 3.37-8.62 0-11.81l-7.4-7c-1.8-1.71-1.85-4.55-.1-6.35C41.52 31.1 44.63 30 48 30c6.62 0 12 5.38 12 12 0 3.37-1.1 6.48-2.78 8.64-1.72 2.21-1.55 5.37.38 7.35l12.67 12.93a6 6 0 0 0 8.54-.03C85.82 66.54 90 57.28 90 47.36 90 28.48 73.88 12 54 12H48Z" fill="url(#petal-a)" opacity="0.85" />
    <path d="M73.86 21.58c-2.65-2.15-6.6-1.88-9.02.67l-9.67 10.08c-2.96 3.09-2.88 7.87.18 10.84l5.69 5.56c3.01 2.94 3.07 7.75.13 10.78l-6.15 6.23c-3.11 3.15-8.22 3.23-11.43.19l-8.42-8.05a6 6 0 0 0-8.54.07C23.18 63.6 22 68.03 22 72.42 22 83.6 32.04 92 45.38 92c19.65 0 35.62-15.97 35.62-35.62 0-13.28-6.73-26.02-17.14-34.8Z" fill="url(#petal-b)" opacity="0.72" />
    <path d="M26.5 28.2c-6.7 6.69-10.5 15.65-10.5 25.14 0 11.34 4.99 21.53 12.96 28.37 2.88 2.47 7.27 2.15 9.84-.63l8.81-9.42c2.93-3.14 2.62-8.07-.68-10.8l-6.52-5.4c-3.54-2.93-3.83-8.24-.64-11.56l5.32-5.5c2.96-3.06 7.74-3.21 10.86-.35l9.55 8.94a6 6 0 0 0 9.33-1.29c2.78-4.73 4.27-9.98 4.27-15.45C79.5 20.1 66.4 8 50.48 8 40.99 8 33.19 11.9 26.5 18.6Z" fill="url(#petal-c)" opacity="0.7" />
    <circle cx="48" cy="48" r="14" fill="#0F172A" opacity="0.35" />
    <circle cx="48" cy="48" r="9" fill="white" opacity="0.12" />
  </g>
</svg>
